<svg width="24" height="24" viewBox="0 0 24 24" fill="none" xmlns="http://www.w3.org/2000/svg">
<g id="favorite">
<mask id="mask0_51_14978" style="mask-type:alpha" maskUnits="userSpaceOnUse" x="0" y="0" width="24" height="24">
<rect id="Bounding box" width="24" height="24" fill="#D9D9D9"/>
</mask>
<g mask="url(#mask0_51_14978)">
<path id="favorite_2" d="M12 23.1661L10.55 21.8426C8.86667 20.2986 7.475 18.9666 6.375 17.8468C5.275 16.7269 4.4 15.7216 3.75 14.8308C3.1 13.94 2.64583 13.1213 2.3875 12.3748C2.12917 11.6282 2 10.8646 2 10.0841C2 8.4892 2.525 7.15725 3.575 6.08829C4.625 5.01934 5.93333 4.48486 7.5 4.48486C8.36667 4.48486 9.19167 4.67151 9.975 5.04479C10.7583 5.41808 11.4333 5.94407 12 6.62277C12.5667 5.94407 13.2417 5.41808 14.025 5.04479C14.8083 4.67151 15.6333 4.48486 16.5 4.48486C18.0667 4.48486 19.375 5.01934 20.425 6.08829C21.475 7.15725 22 8.4892 22 10.0841C22 10.8646 21.8708 11.6282 21.6125 12.3748C21.3542 13.1213 20.9 13.94 20.25 14.8308C19.6 15.7216 18.725 16.7269 17.625 17.8468C16.525 18.9666 15.1333 20.2986 13.45 21.8426L12 23.1661ZM12 20.4174C13.6 18.9581 14.9167 17.7068 15.95 16.6633C16.9833 15.6198 17.8 14.712 18.4 13.94C19 13.168 19.4167 12.4808 19.65 11.8785C19.8833 11.2761 20 10.678 20 10.0841C20 9.06609 19.6667 8.21772 19 7.53901C18.3333 6.86031 17.5 6.52096 16.5 6.52096C15.7167 6.52096 14.9917 6.74578 14.325 7.19542C13.6583 7.64506 13.2 8.21772 12.95 8.91338H11.05C10.8 8.21772 10.3417 7.64506 9.675 7.19542C9.00833 6.74578 8.28333 6.52096 7.5 6.52096C6.5 6.52096 5.66667 6.86031 5 7.53901C4.33333 8.21772 4 9.06609 4 10.0841C4 10.678 4.11667 11.2761 4.35 11.8785C4.58333 12.4808 5 13.168 5.6 13.94C6.2 14.712 7.01667 15.6198 8.05 16.6633C9.08333 17.7068 10.4 18.9581 12 20.4174Z" fill="#3F3D56"/>
</g>
</g>
</svg>
